<svg xmlns="http://www.w3.org/2000/svg" viewBox="0 0 168.5 144.22">
  <title>escritor</title>
  <g class="writer-1">
    <g id="builder">
      <g id="gbuilder">
        <g id="movil">
          <g>
            <path class="writer-2" d="M81.17,2.56l46.67.19a10.76,10.76,0,0,1,10.69,11.52L131,121.77a10.6,10.6,0,0,1-10.57,9.85H72.94a10.6,10.6,0,0,1-10.57-11.38l8-107.71A10.76,10.76,0,0,1,81.17,2.56Z" transform="translate(-2.51 -2.56)"/>
            <path class="writer-3" d="M81.17,2.56l46.67.19a10.76,10.76,0,0,1,10.69,11.52L131,121.77a10.6,10.6,0,0,1-10.57,9.85H72.94a10.6,10.6,0,0,1-10.57-11.38l8-107.71A10.76,10.76,0,0,1,81.17,2.56Z" transform="translate(-2.51 -2.56)"/>
            <path class="writer-4" d="M75.92,2.56l46.67.19a10.76,10.76,0,0,1,10.69,11.52l-7.58,107.49a10.6,10.6,0,0,1-10.57,9.85H67.69a10.6,10.6,0,0,1-10.57-11.38l8-107.71A10.76,10.76,0,0,1,75.92,2.56Z" transform="translate(-2.51 -2.56)"/>
            <polygon class="writer-5" points="69.89 9.85 123.26 9.85 116.84 112.38 63.26 112.78 69.89 9.85"/>
            <path class="writer-6" d="M90.19,128.21a5.3,5.3,0,1,1,5.3-5.3A5.31,5.31,0,0,1,90.19,128.21Zm0-9.85a4.55,4.55,0,1,0,4.55,4.55A4.56,4.56,0,0,0,90.19,118.36Z" transform="translate(-2.51 -2.56)"/>
            <path class="writer-6" d="M104,8.61H95a.91.91,0,0,1-.91-.91h0A.91.91,0,0,1,95,6.8h9a.91.91,0,0,1,.91.91h0A.91.91,0,0,1,104,8.61Z" transform="translate(-2.51 -2.56)"/>
          </g>
          <g>
            <path class="writer-3" d="M119.22,38.84H75.9a2,2,0,0,1-2-2.07L74.51,25a2,2,0,0,1,2-1.87H119.8a2,2,0,0,1,2,2.07L121.19,37A2,2,0,0,1,119.22,38.84Z" transform="translate(-2.51 -2.56)"/>
            <path class="writer-4" d="M107.27,38.88h12a2,2,0,0,0,2-1.86l.59-11.81a2,2,0,0,0-2-2.06h-12a2,2,0,0,0-2,1.86l-.59,11.81A2,2,0,0,0,107.27,38.88Z" transform="translate(-2.51 -2.56)"/>
            <path class="writer-6" d="M103.23,27.14H78.59a.29.29,0,0,1,0-.59h24.64a.29.29,0,0,1,0,.59Z" transform="translate(-2.51 -2.56)"/>
            <path class="writer-6" d="M103,31.07H78.4a.29.29,0,1,1,0-.59H103a.29.29,0,0,1,0,.59Z" transform="translate(-2.51 -2.56)"/>
            <path class="writer-6" d="M90.38,35H78.2a.29.29,0,0,1,0-.59H90.38a.29.29,0,1,1,0,.59Z" transform="translate(-2.51 -2.56)"/>
          </g>
          <g>
            <path class="writer-3" d="M117.69,61.05H74.37a2,2,0,0,1-2-2.07L73,47.23a2,2,0,0,1,2-1.87h43.32a2,2,0,0,1,2,2.07l-.58,11.75A2,2,0,0,1,117.69,61.05Z" transform="translate(-2.51 -2.56)"/>
            <path class="writer-4" d="M105.74,61.09h12a2,2,0,0,0,2-1.86l.59-11.81a2,2,0,0,0-2-2.06h-12a2,2,0,0,0-2,1.86L103.78,59A2,2,0,0,0,105.74,61.09Z" transform="translate(-2.51 -2.56)"/>
            <path class="writer-6" d="M101.7,49.35H77.06a.29.29,0,0,1,0-.59H101.7a.29.29,0,0,1,0,.59Z" transform="translate(-2.51 -2.56)"/>
            <path class="writer-6" d="M101.51,53.28H76.86a.29.29,0,0,1,0-.59h24.64a.29.29,0,0,1,0,.59Z" transform="translate(-2.51 -2.56)"/>
            <path class="writer-6" d="M88.84,57.21H76.67a.29.29,0,0,1,0-.59H88.84a.29.29,0,0,1,0,.59Z" transform="translate(-2.51 -2.56)"/>
          </g>
          <polygon class="writer-7" points="69.89 9.85 63.26 112.78 62.18 112.78 68.82 9.85 69.89 9.85"/>
          <g>
            <circle class="writer-5" cx="112.89" cy="31.07" r="4.91" transform="matrix(0.07, -1, 1, 0.07, 71.6, 138.98)"/>
            <path class="writer-4" d="M112,33a.44.44,0,0,1-.28-.13l-1.65-1.62a.44.44,0,1,1,.62-.63l1.37,1.34,3.14-2.53a.44.44,0,0,1,.55.69l-3.45,2.78A.44.44,0,0,1,112,33Z" transform="translate(-2.51 -2.56)"/>
          </g>
          <g>
            <circle class="writer-5" cx="111.74" cy="53.28" r="4.91" transform="translate(48.37 158.51) rotate(-86.05)"/>
            <path class="writer-4" d="M110.86,55.17a.44.44,0,0,1-.28-.13l-1.65-1.62a.44.44,0,1,1,.62-.63l1.37,1.34,3.14-2.53a.44.44,0,1,1,.55.69l-3.45,2.78A.44.44,0,0,1,110.86,55.17Z" transform="translate(-2.51 -2.56)"/>
          </g>
        </g>
        <line id="linea" class="writer-8" x1="41.88" y1="129.29" x2="138.86" y2="129.29"/>
        <g id="editor">
          <g>
            <polygon class="writer-9" points="142.35 81.71 140.7 88.26 160.5 89.32 159.83 81.11 142.35 81.71"/>
            <polygon class="writer-9" points="150.48 85.98 144.72 105.43 144.84 134.81 137.81 134.96 136.45 104.98 141.15 86.5 150.48 85.98"/>
            <polygon class="writer-10" points="149.66 88.74 145.1 88.31 148.45 92.84 149.66 88.74"/>
            <polygon class="writer-9" points="160.45 87.99 161.78 106.24 167.34 136.36 160.39 137.79 153.67 107.06 151.35 86.01 160.45 87.99"/>
            <g>
              <path class="writer-11" d="M142.32,137.43l3.83,0,.1,5.48-10.88.07h0a1.94,1.94,0,0,1,1.5-1.75l5.39-1.32Z" transform="translate(-2.51 -2.56)"/>
              <rect class="writer-4" x="135.37" y="142.92" width="10.88" height="0.85" transform="translate(-3.45 -1.63) rotate(-0.38)"/>
              <circle class="writer-5" cx="144.16" cy="139.7" r="0.83" transform="translate(-3.43 -1.61) rotate(-0.38)"/>
            </g>
            <g>
              <path class="writer-11" d="M164.91,139.59l3.79-.5.78,5.43-10.79,1.43h0A1.94,1.94,0,0,1,160,144l5.18-2Z" transform="translate(-2.51 -2.56)"/>
              <rect class="writer-4" x="158.71" y="145.23" width="10.88" height="0.85" transform="translate(-20.22 20.26) rotate(-7.55)"/>
              <circle class="writer-5" cx="167.02" cy="141.62" r="0.83" transform="translate(-19.66 20.6) rotate(-7.55)"/>
            </g>
            <path class="writer-12" d="M136.86,74.18l-.23,0L118.76,71.5l.87-5.84,16,2.38a124.82,124.82,0,0,1,8.05-10.49c0,.07.18.26,0,0l5.63.58c.25,1.42-1,1.43-9.79,14.74A3,3,0,0,1,136.86,74.18Z" transform="translate(-2.51 -2.56)"/>
            <path class="writer-13" d="M153.68,56l.58.1A6.45,6.45,0,0,1,159.48,61l4.09,23.3c-8.7,4.74-19.7.05-19.7.05l-2.11-21.73a5.67,5.67,0,0,1,3.12-5.78h0Z" transform="translate(-2.51 -2.56)"/>
            <polygon class="writer-14" points="149.21 55.53 144.31 55.12 145.11 44 150.01 44.41 149.21 55.53"/>
            <path class="writer-14" d="M145.62,56.72l7.48-.65a4.32,4.32,0,0,1-4.57,4.31C144.41,60.32,145.62,56.72,145.62,56.72Z" transform="translate(-2.51 -2.56)"/>
            <g>
              <circle class="writer-5" cx="115.91" cy="68.03" r="3.17" transform="translate(26.97 168.4) rotate(-80.39)"/>
              <path class="writer-5" d="M120.79,70.47l-3.26-.55a1.57,1.57,0,0,1-1.28-1.81h0a1.57,1.57,0,0,1,1.81-1.28l3.26.55a1.57,1.57,0,0,1,1.28,1.81h0A1.57,1.57,0,0,1,120.79,70.47Z" transform="translate(-2.51 -2.56)"/>
            </g>
            <g>
              <circle class="writer-15" cx="119.05" cy="70.67" r="9.13" transform="translate(37.82 182) rotate(-86.05)"/>
              <path class="writer-16" d="M117.41,74.19a.82.82,0,0,1-.52-.23l-3.07-3A.82.82,0,1,1,115,69.77l2.55,2.5,5.85-4.71a.82.82,0,0,1,1,1.28L118,74A.82.82,0,0,1,117.41,74.19Z" transform="translate(-2.51 -2.56)"/>
            </g>
            <path class="writer-17" d="M145.93,54.05h0a6,6,0,0,1-5.61-6.44l.52-7.49,12,.83-.52,7.49A6,6,0,0,1,145.93,54.05Z" transform="translate(-2.51 -2.56)"/>
            <path class="writer-11" d="M152.45,46.45l-1.72-.08a.74.74,0,0,1-.68-.92c.3-1.23.69-3.34-.1-3.65-1.13-.43-7.36.81-9.36-.91-2.82-2.42-.48-5.89,2.19-5.88s2.09,3.06,5.2,3.19,7.88-.79,5.36,7.31Z" transform="translate(-2.51 -2.56)"/>
            <circle class="writer-17" cx="152.66" cy="46.79" r="1.9" transform="matrix(0.07, -1, 1, 0.07, 92.94, 193.3)"/>
            <g>
              <circle class="writer-18" cx="127.84" cy="76.15" r="3.17" transform="translate(40.54 195.88) rotate(-86.04)"/>
              <path class="writer-18" d="M132.93,78.1l-3.29-.23a1.57,1.57,0,0,1-1.46-1.67h0a1.57,1.57,0,0,1,1.67-1.46l3.29.23a1.57,1.57,0,0,1,1.46,1.67h0A1.57,1.57,0,0,1,132.93,78.1Z" transform="translate(-2.51 -2.56)"/>
            </g>
            <path class="writer-13" d="M131.14,79.28V73.38l16.28,0L153,60.13a3,3,0,0,1,3.91-1.46h0a3,3,0,0,1,1.46,3.91l-6.38,15a3,3,0,0,1-2.69,1.73Z" transform="translate(-2.51 -2.56)"/>
            <rect class="writer-19" x="136.9" y="131.88" width="8.81" height="3.07"/>
            <rect class="writer-19" x="161.78" y="136.8" width="8.81" height="3.07" transform="translate(-26.02 32) rotate(-11.09)"/>
          </g>
          <path class="writer-5" d="M141.5,48.71l5.2.25s-.31,2-3.11,1.69C141.38,50.4,141.5,48.71,141.5,48.71Z" transform="translate(-2.51 -2.56)"/>
          <path class="writer-12" d="M143.38,79.3h5.25A4,4,0,0,0,152,77l5.84-13.22c-2.26,7.71-5.24,15.57-5.24,15.57a2.46,2.46,0,0,1-2.4,1.62l-6.73-.27Z" transform="translate(-2.51 -2.56)"/>
        </g>
        <g id="cartel">
          <rect class="writer-20" x="68.12" y="80.56" width="43.05" height="14.29" rx="1.93" ry="1.93" transform="translate(-13.26 9.98) rotate(-7.55)"/>
          <rect class="writer-3" x="65.35" y="75.88" width="43.05" height="14.29" rx="1.93" ry="1.93" transform="translate(-12.67 9.57) rotate(-7.55)"/>
          <path class="writer-6" d="M68.8,81.88a.27.27,0,0,1,0-.53L91,78.39a.26.26,0,0,1,.3.23.27.27,0,0,1-.23.3L68.84,81.87Z" transform="translate(-2.51 -2.56)"/>
          <path class="writer-6" d="M69.27,85.43a.27.27,0,0,1,0-.53l22.25-2.95a.26.26,0,0,1,.3.23.27.27,0,0,1-.23.3L69.31,85.42Z" transform="translate(-2.51 -2.56)"/>
          <path class="writer-6" d="M69.74,89a.27.27,0,0,1,0-.53l11-1.47a.26.26,0,0,1,.3.23.27.27,0,0,1-.23.3L69.78,89Z" transform="translate(-2.51 -2.56)"/>
        </g>
        <g id="editora">
          <path class="writer-11" d="M53.73,136.91l-3.48-.26-.51,5.72,9.93.79.06-.77a1.77,1.77,0,0,0-1.25-1.68l-4.83-1.54Z" transform="translate(-2.51 -2.56)"/>
          <path class="writer-11" d="M8.58,134.81l-.35-3.48-5.73.49,1,9.91.77-.08a1.77,1.77,0,0,0,1.44-1.53l.68-5Z" transform="translate(-2.51 -2.56)"/>
          <path class="writer-13" d="M23,108.89l6.32,20.37-22,1.31.66,5.25,26.87-.91a3.75,3.75,0,0,0,3.71-4.68L37,115.1l14.21-.22-2.46,22.47,6.12.22,6-25.25a5,5,0,0,0-4.75-6.16l-14.45-.36Z" transform="translate(-2.51 -2.56)"/>
          <g>
            <g>
              <polygon class="writer-14" points="29.52 82.56 34.95 83.71 37.26 72.19 31.88 71.06 29.52 82.56"/>
              <path class="writer-17" d="M36.29,80.77h0A5.62,5.62,0,0,0,43,76.42l1.43-6.84-11-2.31-1.43,6.84A5.62,5.62,0,0,0,36.29,80.77Z" transform="translate(-2.51 -2.56)"/>
              <path class="writer-11" d="M40.36,72.53l-1.05,5a3.62,3.62,0,0,1-4.2,2.92l-1-.21a6.33,6.33,0,0,1-4.67-7.62l1-4.55,10.35,2.17Z" transform="translate(-2.51 -2.56)"/>
              <path class="writer-11" d="M40,71.79a22.79,22.79,0,0,0,4.21.71,2.54,2.54,0,0,0,2.11-4.06l-.19-.22a4,4,0,0,0-4.43-.71C41.72,67.68,40,71.79,40,71.79Z" transform="translate(-2.51 -2.56)"/>
              <path class="writer-11" d="M43.33,68.87s-3.16-4.64-8.63-3.27c0,0-2.1-.11-4.31,2.51l9.2,4.38Z" transform="translate(-2.51 -2.56)"/>
              <circle class="writer-17" cx="39.71" cy="75.09" r="1.65" transform="translate(-44.43 96) rotate(-78.17)"/>
              <circle class="writer-11" cx="30.49" cy="63.83" r="5.32" transform="translate(-40.74 78.02) rotate(-78.17)"/>
            </g>
            <path class="writer-15" d="M41.79,105.62c-2-3.3-1.06-10.91-.23-15.48A5.57,5.57,0,0,0,39,84.42h0l-6.29-1.86c-1.56-.54-3.6,1.27-4.71,2.49-9.92,10.91-6.1,24.8-6.1,24.8a30.64,30.64,0,0,0,9.82.51h.08l.12,0A17.18,17.18,0,0,0,41.79,105.62Z" transform="translate(-2.51 -2.56)"/>
            <g>
              <g>
                <circle class="writer-17" cx="68.19" cy="85.79" r="3.4" transform="translate(-39.85 53.69) rotate(-35.89)"/>
                <path class="writer-17" d="M64.66,90.44l2.87-2.07A1.68,1.68,0,0,0,67.91,86h0a1.68,1.68,0,0,0-2.35-.38l-2.87,2.07a1.68,1.68,0,0,0-.38,2.35h0A1.68,1.68,0,0,0,64.66,90.44Z" transform="translate(-2.51 -2.56)"/>
              </g>
              <path class="writer-15" d="M67,90.5l-3.35-5.36L48.84,94.38l-9.28-9.45a3.16,3.16,0,0,0-4.38.89h0a3.16,3.16,0,0,0,.89,4.38l11,10.57a3.16,3.16,0,0,0,3.42,0Z" transform="translate(-2.51 -2.56)"/>
            </g>
          </g>
          <polygon class="writer-10" points="34.46 112.53 40.42 109.19 40.1 110.74 48.67 112.31 34.46 112.53"/>
        </g>
        <g id="Estrellas">
          <path class="writer-5" d="M168.28,30.62l-.49-1.41-.49,1.41a4.93,4.93,0,0,1-2.74,2.79h0a4.93,4.93,0,0,1,2.74,2.79l.49,1.41.49-1.41A4.93,4.93,0,0,1,171,33.4h0A4.93,4.93,0,0,1,168.28,30.62Z" transform="translate(-2.51 -2.56)"/>
          <path class="writer-5" d="M20.45,71.6l-.33-.93-.33.93A3.25,3.25,0,0,1,18,73.44h0a3.25,3.25,0,0,1,1.81,1.84l.33.93.33-.93a3.25,3.25,0,0,1,1.81-1.84h0A3.25,3.25,0,0,1,20.45,71.6Z" transform="translate(-2.51 -2.56)"/>
        </g>
      </g>
    </g>
  </g>
</svg>
