<svg xmlns="http://www.w3.org/2000/svg" xmlnsXlink="http://www.w3.org/1999/xlink" viewBox="0 0 176.45 146.76">
  <defs>
    <linearGradient id="Degradado_lector_2" data-name="Degradado sin nombre 2" x1="92.59" y1="77.72" x2="52.06" y2="37.6" gradientTransform="matrix(1, 0, 0, -1, 0, 126.77)" gradientUnits="userSpaceOnUse">
      <stop offset="0" stop-color="#fff"/>
      <stop offset="1" stop-color="#fff" stop-opacity="0"/>
    </linearGradient>
    <linearGradient id="Degradado_lector_2-2" x1="108.34" y1="61.81" x2="67.81" y2="21.7" xlink:href="#Degradado_sin_nombre_2"/>
  </defs>
  <title>lector</title>
  <g class="lector-1">
    <g id="builder">
      <g id="gbuilder">
        <g id="cartel">
          <rect class="lector-2" x="68.12" y="80.56" width="43.05" height="14.29" rx="1.93" ry="1.93" transform="translate(-10.75 12.54) rotate(-7.55)"/>
          <rect class="lector-3" x="65.35" y="75.88" width="43.05" height="14.29" rx="1.93" ry="1.93" transform="translate(-10.16 12.14) rotate(-7.55)"/>
          <path class="lector-4" d="M68.8,81.88a.27.27,0,0,1,0-.53L91,78.39a.26.26,0,0,1,.3.23.27.27,0,0,1-.23.3L68.84,81.87Z"/>
          <path class="lector-4" d="M69.27,85.43a.27.27,0,0,1,0-.53l22.25-2.95a.26.26,0,0,1,.3.23.27.27,0,0,1-.23.3L69.31,85.42Z"/>
          <path class="lector-4" d="M69.74,89a.27.27,0,0,1,0-.53l11-1.47a.26.26,0,0,1,.3.23.27.27,0,0,1-.23.3L69.78,89Z"/>
        </g>
        <g id="glectoresin">
          <path id="lineaa" class="lector-5" d="M153.39,123H.82a.79.79,0,0,1-.82-.76H0a.79.79,0,0,1,.82-.76H153.39a.79.79,0,0,1,.82.76h0A.79.79,0,0,1,153.39,123Z"/>
          <g id="ordenador">
            <rect class="lector-6" x="41.69" y="42.31" width="107.22" height="71.44" rx="7.55" ry="7.55"/>
            <rect class="lector-5" x="47.27" y="47.89" width="96.06" height="60.26"/>
            <rect class="lector-7" x="47.27" y="102.39" width="96.06" height="5.76"/>
            <rect class="lector-7" x="47.27" y="47.89" width="96.06" height="2.86"/>
            <path class="lector-5" d="M147.85,121H42.75a7.21,7.21,0,0,1-7.21-7.21H155A7.21,7.21,0,0,1,147.85,121Z"/>
            <path class="lector-7" d="M147.85,118.47H42.75A7.21,7.21,0,0,1,36,113.75h-.44A7.21,7.21,0,0,0,42.75,121H147.85a7.21,7.21,0,0,0,7.21-7.21h-.45A7.21,7.21,0,0,1,147.85,118.47Z"/>
            <rect class="lector-7" x="38.94" y="112.33" width="112.71" height="1.42"/>
            <path class="lector-7" d="M102.09,116.15H88.51a2.41,2.41,0,0,1-2.41-2.41H104.5a2.41,2.41,0,0,1-2.41,2.41Z"/>
            <rect class="lector-8" x="50.69" y="110.05" width="13.19" height="2.28"/>
            <rect class="lector-8" x="127" y="110.05" width="13.19" height="2.28"/>
            <g>
              <g>
                <path class="lector-9" d="M84.24,86.22h36.39A2.82,2.82,0,0,1,123.46,89v.74a2.82,2.82,0,0,1-2.82,2.82H84.24V86.22Z"/>
                <path class="lector-6" d="M84.56,86.22H62.78v1.22h20v4h-20v1.22H84.56a1.56,1.56,0,0,0,1.56-1.56h0V87.79a1.56,1.56,0,0,0-1.55-1.57Z"/>
                <rect class="lector-10" x="63.76" y="87.43" width="20.52" height="3.97"/>
                <rect class="lector-5" x="63.76" y="87.43" width="20.52" height="0.93"/>
              </g>
              <g>
                <path class="lector-6" d="M87.24,79.82h23.27a2.82,2.82,0,0,1,2.82,2.82v.76a2.82,2.82,0,0,1-2.82,2.82H87.24V79.82Z"/>
                <path class="lector-6" d="M87.52,79.82H65.74V81h20v4h-20v1.22H87.52a1.56,1.56,0,0,0,1.56-1.56h0V81.39a1.56,1.56,0,0,0-1.55-1.57Z"/>
                <rect class="lector-10" x="66.72" y="81.03" width="20.52" height="3.97"/>
                <rect class="lector-5" x="66.72" y="81.03" width="20.52" height="0.93"/>
              </g>
              <g>
                <polygon class="lector-9" points="62 71.51 62 73.09 91.55 73.09 91.55 78.24 62 78.24 62 79.82 92.27 79.82 92.27 71.51 62 71.51"/>
                <path class="lector-6" d="M112.07,79.81H92.27V71.5h19.8a2.56,2.56,0,0,1,2.56,2.56v3.17a2.56,2.56,0,0,1-2.54,2.58Z"/>
                <rect class="lector-5" x="92.27" y="73.09" width="20.52" height="5.15"/>
                <rect class="lector-9" x="92.27" y="73.09" width="20.52" height="1.21"/>
                <rect class="lector-10" x="63.58" y="73.09" width="30.4" height="5.15"/>
                <rect class="lector-5" x="63.58" y="73.09" width="30.4" height="1.21"/>
              </g>
              <g>
                <polygon class="lector-9" points="71.51 92.63 71.51 94.21 101.06 94.21 101.06 100.82 71.51 100.82 71.51 102.39 101.78 102.39 101.78 92.63 71.51 92.63"/>
                <path class="lector-6" d="M121.58,102.39h-19.8V92.62h19.8a2.56,2.56,0,0,1,2.56,2.56v4.63a2.56,2.56,0,0,1-2.54,2.58Z"/>
                <rect class="lector-5" x="101.78" y="94.21" width="20.52" height="6.61"/>
                <rect class="lector-9" x="101.78" y="94.21" width="20.52" height="1.21"/>
                <rect class="lector-10" x="73.09" y="94.21" width="30.4" height="6.61"/>
                <rect class="lector-5" x="73.09" y="94.21" width="30.4" height="1.21"/>
              </g>
            </g>
            <polygon class="lector-11" points="79.31 47.89 47.27 79.93 47.27 108.15 47.34 108.15 107.6 47.89 79.31 47.89"/>
            <polygon class="lector-12" points="56.23 108.15 73.8 108.15 134.05 47.89 116.48 47.89 56.23 108.15"/>
            <polygon class="lector-13" points="132.02 108.15 143.33 96.85 143.33 79.28 114.45 108.15 132.02 108.15"/>
          </g>
          <g id="depie">
            <polygon class="lector-14" points="37.95 55.26 32.82 19.19 18.97 17.3 11.77 55 37.95 55.26"/>
            <path class="lector-14" d="M27.25,111.11v4.07a8.89,8.89,0,0,1-.33,2.45l-.35,1.25a1.6,1.6,0,0,0,1.55,2h8.72a.4.4,0,0,0,.41-.33c.1-1.19-3.33-2-5.91-3-2-.76-1.86-4.26-1.62-6.36a1.25,1.25,0,0,0-1.1-1.38h-.24A1.25,1.25,0,0,0,27.25,111.11Z"/>
            <path class="lector-14" d="M8.22,110l-1.4,4.65a2.14,2.14,0,0,1-.27.58l-1,1.48a1.71,1.71,0,0,0,.9,2.56s2,.71,4.07,1.38,4.77.11,4.77-.44c0-1.24-1.15-.26-3.09-1.55a21.48,21.48,0,0,1-1.91-1.36c-1.71-1.3-.21-4.61.81-6.48a1.14,1.14,0,0,0-.77-1.66l-.49-.1A1.39,1.39,0,0,0,8.22,110Z"/>
            <path class="lector-6" d="M22.53,55.61l15.35-1.29s1.54,11.16-2.34,31.38c-1.82,9.48-5.61,27.59-5.61,27.59a4.35,4.35,0,0,1-2.87.27s-.29-8-.46-16.6c-.17-8.26-.21-17.06-.74-20C24.79,71.13,22.53,55.61,22.53,55.61Z"/>
            <path class="lector-15" d="M30.42,78.52c3.84-14.8-1.19-22.28-1.19-22.28l-6.71-.63S24.79,71.13,25.86,77a95,95,0,0,1,.57,10.73C26.49,90.64,29.19,83.28,30.42,78.52Z"/>
            <path class="lector-6" d="M25.69,55.8C27.28,64.33,30.81,77,24,89S10,113.32,10,113.32a3.88,3.88,0,0,1-2.56-.85s1.19-5.42,2.93-11.74c2-7.23,4.48-15.74,3.77-20.17-1.34-8.32-2.87-19.39-2.41-24.73S24.86,51.33,25.69,55.8Z"/>
            <path class="lector-10" d="M38.48,54.34,32.82,19.19,19,17.29,11.53,54.4a1.28,1.28,0,0,0,1,1.51h0a88.7,88.7,0,0,0,15.75,1.51c5.19,0,8.11-1,9.44-1.65A1.35,1.35,0,0,0,38.48,54.34Z"/>
            <path class="lector-14" d="M11.08,67.94c-.21-.9-.32-1.84-.44-2.19a4.86,4.86,0,0,0-.37-.61A2.68,2.68,0,0,1,9.72,64V62.46c0-.75-.36-1.32-1.11-1.32h0c-.85,0-1.18.69-1.08,1.5v1.08a4.64,4.64,0,0,1-.34,1.88,6.93,6.93,0,0,0,.31,3.93c.23.73,1.17,1.19,2.46,1.71.63.26,1.71.48,1.28-.28S9,69.39,9.57,67.4c0-.1.12-.34.24-.35.38,0,.44.85.62,1.22.25.56.65.79.85.73S11.22,68.59,11.08,67.94Z"/>
            <path class="lector-16" d="M23.3,19.48A21.72,21.72,0,0,1,22,26.9c-1.71,4.66-4.26,13.46-2.72,21.21,2.17,11.16,5,15.69,1.35,18.29S10,64.69,9.84,63.21,11.19,44,12.95,36.27s6.68-18.76,6.68-18.76l2.09.22A1.77,1.77,0,0,1,23.3,19.5Z"/>
            <path class="lector-17" d="M16.34,38.77c1.32-3.33,2.83-7.52,4-10.71a19.48,19.48,0,0,0,1-7l-1.86-3.79s-4.73,11.25-6.49,19S14.6,43.16,16.34,38.77Z"/>
            <path class="lector-16" d="M16.79,18.25S4.73,34.46,4.76,43.54c0,5.47,2,16.61,2.5,19.17a.75.75,0,0,0,.66.61,6.69,6.69,0,0,0,.68,0,6.12,6.12,0,0,0,.8-.07.91.91,0,0,0,.78-.92c-.07-3.41-.29-16.81.61-19.5,1-3.08,11.09-17.76,11.28-21S19.77,15.7,16.79,18.25Z"/>
            <path class="lector-16" d="M29.06,18.68a25.75,25.75,0,0,1,1.56,12.65c-.85,7.45-2.78,30.16,4,33.59,2.15,1.08,7.05-3.72,7.05-5.51S40,51.65,38.49,46.22s-5.29-27-5.29-27Z"/>
            <path class="lector-17" d="M39,48.09l-.53-1.86c-.31-1.06-.71-2.74-1.15-4.75-2.46,1.16-5,2.28-7.35,3.5a24.56,24.56,0,0,0-.26,3.69C32.83,48.53,35.93,48.36,39,48.09Z"/>
            <path class="lector-14" d="M47.8,40c-.45-1.48-2.9-.85-5.6,0-1.62.49-10.07,3.74-12.75,4.78-.39.15-.58,0-1,.11A3,3,0,0,0,26,48.46c.07.78.43.85.73,1.57A2,2,0,0,0,28,51c.52.17.68.85.95.75.63-.14.56-1.89.55-2.49,0-.36-.24-1.86-.24-1.86a.74.74,0,0,1,.58-.55c2.29-.44,12.25-2.12,13.9-2.63C46.43,43.31,48.25,41.45,47.8,40Z"/>
            <g>
              <path class="lector-6" d="M20.36,3.64a5.24,5.24,0,0,1-1,3.62c-1.25,1.53.57,3,1,4s-.1,2.56,1.09,3.28,4.6.85,5.12-.35S24.2,2.91,20.36,3.64Z"/>
              <path class="lector-6" d="M34.07,6.36c.19,6.82-6.17,8.14-9.86,8.14S20.36,6.32,20.36,3.41,23.26,0,27,0c2.91,0,5.66,2.25,6.82,4.42A4.68,4.68,0,0,1,34.07,6.36Z"/>
              <path class="lector-14" d="M27.1,2.59c-3.09,0-4.26,2.2-4.26,6.27a8.27,8.27,0,0,0,1.21,4,3,3,0,0,1,.29,2.35l-.65,2.29c-.46,2.13.55,3.3,2,3.73A2.9,2.9,0,0,0,28,20.87a2.36,2.36,0,0,0,.69-2.46l-.18-.66a1.63,1.63,0,0,1,1.12-2l.07,0c2.38-.52,2.72-3,3.36-6.82C33.67,4.84,30.22,2.59,27.1,2.59Z"/>
              <path class="lector-6" d="M34.32.81l-1.77.54a3.51,3.51,0,0,1-2,0L27,.32c-2.14,0-5.68,1.21-5.24,4.26l.39,2.18a2,2,0,0,0,1.77,1.6h0a.69.69,0,0,0,1.36-.18h0A2.1,2.1,0,0,1,27,6.2a7.74,7.74,0,0,1,3.76,0A4.13,4.13,0,0,0,36,2.79V2.3A1.44,1.44,0,0,0,34.32.81Z"/>
              <path class="lector-14" d="M24.54,8.94c0,.95-.35,1.71-1.26,1.71s-1.49-1.3-1.49-2.24.58-1.18,1.49-1.18S24.54,8,24.54,8.94Z"/>
              <path class="lector-18" d="M32.1,11.76a.71.71,0,0,1-.55.84l-.14,0h0a.71.71,0,0,1-.71-.67v-3a.43.43,0,0,1,.43-.43.34.34,0,0,1,.33.26Z"/>
            </g>
            <path class="lector-16" d="M32,19.46s2-1.22,5.36,2.09S47.93,37.09,48.63,40.82,30,47.11,30,47.11a3.91,3.91,0,0,1-.9-2.64S41,40,41.26,38.43s-9-10.85-9.68-12.19C30.26,23.83,29.78,21.25,32,19.46Z"/>
            <path class="lector-14" d="M27,45.61s-2.3,2.09-2.38,2.28c-.17.38.24.79.54.47s1.65-1,2-.38Z"/>
          </g>
          <g id="tumbada">
            <path class="lector-14" d="M148.38,136.7a9,9,0,0,0-2.72,1.35,1.94,1.94,0,0,1-1.39.48h-1.19a1,1,0,0,0-1,1h0a1,1,0,0,0,1,1h.18a9.32,9.32,0,0,0,1.59-.5,1.19,1.19,0,0,1,.79,0,3.16,3.16,0,0,0,2.51-.52,6.51,6.51,0,0,0,1.39-.5c.28-.15.63-.14.64-.34s-.38-.4-.72-.36c-.6.08-1.47.34-1.62.11s.53-.6,1.36-.85,2,.58,2.56-.22C151.84,137.07,149.29,136.32,148.38,136.7Z"/>
            <path class="lector-19" d="M172,127.8a.85.85,0,0,0-1,.54l-4.55,13.48a1.14,1.14,0,0,0,.36,1.25l1.06.85,5.48-15.75Z"/>
            <path class="lector-9" d="M141.17,130.46a6.64,6.64,0,0,0-1.26-6.64,8.65,8.65,0,0,1-2.15-5.47,8,8,0,0,0-5.26-7.24c-1.63-.59-6.36-2.15-6.36-2.15s2.41-1.63.17-1.75a6.17,6.17,0,0,0-5.74,5.67,8.73,8.73,0,0,1-1.45,3.79,6.63,6.63,0,0,0,1.86,9.19l.47.28.37.19a6.7,6.7,0,0,1,3.41,8.05,4.79,4.79,0,0,0,.21,4.1,6.54,6.54,0,0,0,11.84-2.15,5,5,0,0,1,1.71-2.88A6.58,6.58,0,0,0,141.17,130.46Z"/>
            <path class="lector-15" d="M122.28,128.75a9,9,0,0,1,.47-4.89c.41-1,1-2,2-2.13,1.85-.33,6.82,12.13,7.74,14.79a.85.85,0,0,0,.73.59l10.31,1.13a3.13,3.13,0,0,1,.23,2.38l-11.8,1.87a2.86,2.86,0,0,1-2.56-.85C127.34,139.44,123.24,134.43,122.28,128.75Z"/>
            <path class="lector-5" d="M175.6,146.76H17.48a.85.85,0,0,1-.85-.85h0a.85.85,0,0,1,.85-.85H175.6a.85.85,0,0,1,.85.85h0A.85.85,0,0,1,175.6,146.76Z"/>
            <path class="lector-14" d="M36.8,143.21A1.33,1.33,0,0,0,35.63,142a13.14,13.14,0,0,1-5.12-1.33c-2.36-1.37-3-.95-4.76.85s-4.33,1.91-5.87,2.11-2.16,1.42.27,1.47c2.2.05,9.83-1.19,15.15-.43a1.32,1.32,0,0,0,1.5-1.37Z"/>
            <path class="lector-14" d="M55.08,110.15a1.22,1.22,0,0,0,0-1.3,13.78,13.78,0,0,1-2-5.28c-.22-2.72-.94-3-3.41-3.41s-3.67-2-4.71-3.1-2.39-1-1,1.07c1.18,1.77,6.4,7.15,9,12a1.23,1.23,0,0,0,2.11.08Z"/>
            <path class="lector-9" d="M132,113.62c-1.88,5.22-6.65,4.83-9.57,3.77s-1.16-5.29-.35-7.53,3.72-3.28,6.64-2.23S132.86,111.38,132,113.62Z"/>
            <path class="lector-16" d="M52.06,108.92a2.7,2.7,0,0,1,2.62-1.39s12.15,18.2,14.81,20.55,27.05,1,27.05,1L97,142.41s-26,.5-32.57-6.41S52.06,108.92,52.06,108.92Z"/>
            <path class="lector-17" d="M96.54,129.12s-5.62.3-11.76.35c-.39.2-9.57,4.69-14.5,4.88-7.29.28-9.58-3.62-9.58-3.62A26.72,26.72,0,0,0,64.4,136C71,142.92,97,142.41,97,142.41Z"/>
            <path class="lector-16" d="M107,143.34l-2-12.57s-4.11-4.9-14.66-1.8-17.29,6.9-22.45,7.45-33.15,5.12-33.15,5.12a3.57,3.57,0,0,0,0,3.28l56.29.32S101.61,145.19,107,143.34Z"/>
            <path class="lector-6" d="M124.48,121.28l-.14-.08a8.93,8.93,0,0,0-9.61.85l-.46.38-4,3.63a5,5,0,0,1-2.32,1.19,6.06,6.06,0,0,0-1.77.67h-.05c-1.71.93-2.56-.9-3.32,0s-5.82-.55-5.82-.55-4.86,0-2.38,6.75S101.72,145,105,145c1.8,0,4.9-1.43,7.31-2.71a5.6,5.6,0,0,0,.74-.48,9.85,9.85,0,0,1,2.66-1.48l.74-.26a5.83,5.83,0,0,1,4,.06c1.71.64,4.26.85,5.22-2.49L126.66,125C126.69,123.85,125.53,121.62,124.48,121.28Z"/>
            <path class="lector-15" d="M121.29,122c-.95.34-2.3,2-3.36,3.41a19.4,19.4,0,0,0-2.23,4.15,22.63,22.63,0,0,1-9.51,11.4,12.67,12.67,0,0,1-6.07,1.71A7.91,7.91,0,0,0,105,145c1.8,0,4.9-1.43,7.31-2.71a5.6,5.6,0,0,0,.74-.48,9.85,9.85,0,0,1,2.66-1.48l.74-.26a5.83,5.83,0,0,1,4,.06c1.71.64,4.26.85,5.22-2.49l1.06-12.68a5.41,5.41,0,0,0-1.22-2.92A4.9,4.9,0,0,0,121.29,122Z"/>
            <path class="lector-14" d="M128.72,109.2c-2.73-1-4.48.53-5.89,4.1a7.8,7.8,0,0,0-.26,3.93,2.85,2.85,0,0,1-.53,2.17l-1.36,1.8a2.67,2.67,0,0,0,.56,4,2.74,2.74,0,0,0,2.13.43c.85-.18,1.25-1.1,1.43-1.94l.06-.64a1.54,1.54,0,0,1,1.66-1.4h0c.67.09,1.25.44,1.81.31s2.87-3,3.67-6.63S131.45,110.26,128.72,109.2Z"/>
            <path class="lector-18" d="M129.59,118.79a.67.67,0,0,1-.78.52l-.14,0h0a.67.67,0,0,1-.36-.85l1.13-2.6a.4.4,0,0,1,.53-.2h0a.32.32,0,0,1,.19.36Z"/>
            <path class="lector-9" d="M135.09,110.13a2.75,2.75,0,0,0-1.79-.48,10.09,10.09,0,0,1-4.31-.43l-.19-.07a6.64,6.64,0,0,0-4.7.08h0A2,2,0,0,0,123,111.9l.06.14,1,2a.34.34,0,0,0,.63,0l.31-.85a.92.92,0,0,1,1-.59l.44.09a3.83,3.83,0,0,0,1.55-.05,3.14,3.14,0,0,1,2.1.26,3,3,0,0,1,1.16,1.08A2.7,2.7,0,0,0,132.6,115a2.76,2.76,0,0,0,2.49-4.87Z"/>
            <path class="lector-14" d="M123.9,114.36c-.32.85-.72,1.88-1.46,1.59s-.85-2.07-.58-2.9.85-.85,1.59-.58S124.22,113.53,123.9,114.36Z"/>
            <path class="lector-20" d="M173.34,127.16a1.19,1.19,0,0,0-1.3.85l-5.31,15.17a.45.45,0,0,1-.43.3H152.9a1.58,1.58,0,0,0-1.58,1.58h16.44a1,1,0,0,0,1-.71l5.48-15.63a1.15,1.15,0,0,0-.66-1.49Z"/>
            <path class="lector-21" d="M165.46,144.24a.26.26,0,0,1-.26.26h-1.57a.26.26,0,0,1,0-.51h1.57a.26.26,0,0,1,.26.26Z"/>
            <circle class="lector-21" cx="161.95" cy="144.24" r="0.38"/>
            <circle class="lector-21" cx="160.71" cy="144.24" r="0.38"/>
            <path class="lector-21" d="M165.89,143.44H153.26a.44.44,0,0,1,.44-.44h11.74a.44.44,0,0,1,.44.44Z"/>
            <path class="lector-14" d="M152.48,142c-.39.19-.85.38-1.27.62a3.5,3.5,0,0,1-2.09.46c-.65-.06-1.45-.09-2.39-.09a1,1,0,0,0-1,.92h0a1,1,0,0,0,.93,1.09h0c.85,0,1.59-.05,2.12-.05h.67a3.64,3.64,0,0,1,1,0,2,2,0,0,0,1.8-1.19c.27-.56.31-.41,1-.67s2.56.12,2.56-.32S153.33,141.57,152.48,142Z"/>
            <path class="lector-6" d="M117,122.46c.69-1.22,2.87-2.64,5.59.62,3.6,4.32,9.89,16.51,11.76,16.72s14.12,3,14.12,3a2.72,2.72,0,0,1,0,2.2H131.57C128.54,145,113.81,128.08,117,122.46Z"/>
          </g>
        </g>
      </g>
    </g>
  </g>
</svg>
