<svg id="Capa_1" data-name="Capa 1" xmlns="http://www.w3.org/2000/svg" viewBox="0 0 615.633 218.185">
  <defs>
    <style>
      .cls-1 {
        fill: none;
        stroke: #fbfbfb;
        stroke-miterlimit: 10;
        stroke-width: 2px;
      }
    </style>
  </defs>
  <title>logo-bn</title>
  <g>
    <g id="logog">
      <path id="logonaranja1" class="cls-1" d="M45.412,145.362,45.141,2.449A1.452,1.452,0,0,0,43.706,1h0a1.452,1.452,0,0,0-.781.217L4.141,25.2l-.933.55a4.415,4.415,0,0,0-2.171,3.8L1,193.826v-.205L29.737,215.17a2.553,2.553,0,0,0,2.071.453l3.654-.789a2.553,2.553,0,0,0,1.322-.748l64.3-68.45,2.664-2.84a2.553,2.553,0,0,0,.691-1.743l.094-59.971h0Z"/>
      <path class="cls-1" d="M216,194.109v.205l-.037-164.272a4.415,4.415,0,0,0-2.171-3.8l-.933-.55L174.073,1.7a1.452,1.452,0,0,0-.781-.217h0a1.452,1.452,0,0,0-1.435,1.449l-.271,142.913L112.461,81.57h0l.094,59.971a2.553,2.553,0,0,0,.691,1.743l2.664,2.84,64.3,68.45a2.553,2.553,0,0,0,1.322.748l3.654.789a2.553,2.553,0,0,0,2.071-.453Z"/>
    </g>
    <g id="letrasg">
      <path id="letrar" class="cls-1" d="M248.961,107.922s1.083,3.095,2.32,12.378c4.642-7.736,10.831-13.925,23.982-13.925a64.566,64.566,0,0,1,17.793,2.476v5.261s-6.188-1.547-17.793-1.547c-18.567,0-23.982,15.472-23.982,30.945v41.775h-6.188s-1.548-30.945-1.548-55.7c0-16.4.465-21.662.465-21.662Z"/>
      <path id="letrai" class="cls-1" d="M308.682,83.166a5.416,5.416,0,1,1-5.415,5.416A5.289,5.289,0,0,1,308.682,83.166Zm-3.094,102.118s-1.548-30.945-1.548-55.7c0-16.4.465-21.662.465-21.662h7.271v77.362Z"/>
      <path id="letrat" class="cls-1" d="M321.213,107.922a126.157,126.157,0,0,1,17.793-1.547c0-18.567,1.548-37.134,1.548-37.134h6.962s-.773,18.567-.773,37.134a133.2,133.2,0,0,1,19.341,1.547v4.642H346.742v9.283c0,48.738.773,59.569,19.341,59.569v5.416c-26.3,0-27.077-17.02-27.077-64.984v-9.283H321.213Z"/>
      <path id="letrae" class="cls-1" d="M434.47,130.357c0,7.736-3.095,20.888-28.624,20.888-7.272,0-23.982-1.547-23.982-1.547,0,13.925,3.095,30.945,23.982,30.945a97.277,97.277,0,0,0,23.981-3.095v5.416s-9.283,3.868-23.981,3.868c-28.624,0-31.719-24.756-31.719-40.229,0-18.567,3.095-40.228,31.719-40.228C431.375,106.375,434.47,122.621,434.47,130.357Zm-52.606,14.7h23.982c17.793,0,20.888-8.51,20.888-14.7s-3.095-17.793-20.888-17.793C384.184,112.564,381.864,129.584,381.864,145.056Z"/>
      <path id="letrau" class="cls-1" d="M541.212,80.13l-11.478,64.646q-3.545,20.255-10.465,28.863-10.468,13.336-34.1,13.334-35.445,0-35.445-27.513a49.969,49.969,0,0,1,.844-8.777l8.271-46.079a48.463,48.463,0,0,0,.338-5.232q0-8.944-9.621-8.946a1.5,1.5,0,0,1-1.519-2.025,2.2,2.2,0,0,1,2.194-1.857L486.525,80.3l-11.14,62.621q-2.2,12.829-2.194,18.229,0,16.038,15.7,16.2,16.033.17,23.63-9.452,5.4-6.749,8.1-21.436L532.266,80.13Z"/>
      <path id="letrap" class="cls-1" d="M572.943,186.972q-8.607,0-13.5-5.57l-6.414,35.783H529.565l15.021-84.562a39.038,39.038,0,0,0,.676-6.414q0-4.387-2.279-6.077t-7.68-1.687a1.5,1.5,0,0,1-1.519-2.026c.11-1.123.844-1.743,2.193-1.856l36.29-6.245-1.856,10.971a19.314,19.314,0,0,1,16.541-8.439q12.825,0,20.254,8.186t7.427,21.014a49.174,49.174,0,0,1-11.646,32.07Q590.664,186.974,572.943,186.972ZM590.5,147.814a78.331,78.331,0,0,0,1.351-13q0-15.527-11.309-15.528-10.128,0-15.191,28.525l-1.013,5.907a79.135,79.135,0,0,0-1.519,13q0,11.14,7.258,11.14Q585.094,177.858,590.5,147.814Z"/>
    </g>
  </g>
</svg>
